<svg id="ic_content_paste_24px" xmlns="http://www.w3.org/2000/svg" width="16.364" height="20" viewBox="0 0 16.364 20">
  <path id="ic_content_paste_24px-2" data-name="ic_content_paste_24px" d="M17.545,1.818h-3.8a2.716,2.716,0,0,0-5.127,0h-3.8A1.824,1.824,0,0,0,3,3.636V18.182A1.824,1.824,0,0,0,4.818,20H17.545a1.824,1.824,0,0,0,1.818-1.818V3.636A1.824,1.824,0,0,0,17.545,1.818Zm-6.364,0a.909.909,0,1,1-.909.909A.912.912,0,0,1,11.182,1.818Zm6.364,16.364H4.818V3.636H6.636V6.364h9.091V3.636h1.818Z" transform="translate(-3)" fill="#0d111c"/>
</svg>
